# xmcd CD database file
#
# Track frame offsets:
#	150
#	21345
#	36920
#	59025
#	79492
#	93370
#	119525
#	137252
#	160047
#
# Disc length: 2447 seconds
#
# Revision: 2
# Processed by: cddbd v1.5.2PL0 Copyright (c) Steve Scherf et al.
# Submitted via: CDex 1.70beta3
#
DISCID=76098d09
DTITLE=Rescue - Rescue
DYEAR=1995
DGENRE=Melodic Hard Rock
TTITLE0=Don't Call Me Crazy
TTITLE1=Face To Face
TTITLE2=Into The Night
TTITLE3=Hold On
TTITLE4=Be There For You
TTITLE5=The Appearance (Intro) Feels Like The First Time
TTITLE6=Sometimes
TTITLE7=Fire's Still Burning
TTITLE8=Deeper
EXTD=YEAR: 1995
EXTT0=
EXTT1=
EXTT2=
EXTT3=
EXTT4=
EXTT5=
EXTT6=
EXTT7=
EXTT8=
PLAYORDER=
